<svg xmlns="http://www.w3.org/2000/svg" width="250" height="52" viewBox="0 0 1683.55 354.74"><defs><style>.a{fill:#fff;}</style></defs><path class="a" d="M386.45,90.83c0-11.25,0-11.25-8.21-11.25H338.36c-10.5,0-10.5,0-10.42,11.25,0,0,0,109.23,0,118.51-4.4,8.08-13.37,27.31-27.44,28.09-15.49-.15-19.69-.05-35.18-.05-24,0-27.68-3.89-27.68-29.37V90.71c.13-11.13.16-11.13-7.51-11.13H192.25c-10.86,0-10.86,0-10.86,11.25V226.06c0,57.82,49.42,58.59,117.18,56.26,15.09-3.53,25.22-25.5,29.35-33.65q0,12.93-.05,25.86c0,7.79,0,7.79,8.17,7.79h42c8.37,0,8.37,0,8.37-7.31Z"/><path class="a" d="M1657,34V29.94c0-.67.08-.74.76-.75h1.27a.38.38,0,0,1,.43.43c0,.28,0,.56,0,.84s.12.37.39.4a1.38,1.38,0,0,0,1.46-.6,2.34,2.34,0,0,1,2.48-1.09,5.56,5.56,0,0,1,2.17.43,2.39,2.39,0,0,1,1.35,2.15c0,.58,0,1.16,0,1.73a2.46,2.46,0,0,1-1.54,2.22c-.19.09-.6,0-.52.33a.85.85,0,0,0,.74.64,7.85,7.85,0,0,0,.84,0c.41,0,.62.13.59.57s0,.75,0,1.12a.4.4,0,0,1-.45.46h-1.69a.94.94,0,0,1-.73-.36c-.64-.73-1.3-1.44-1.92-2.18a.93.93,0,0,0-.77-.37c-.57,0-1.15,0-1.73,0-.39,0-.52.16-.51.53,0,.58,0,1.16,0,1.74s-.1.63-.62.64-1,0-1.45,0-.55-.17-.55-.56C1657,36.86,1657,35.44,1657,34Zm2.67.69a.29.29,0,0,0,.25-.2,1.14,1.14,0,0,1,1.26-.65c.89,0,1.78,0,2.67,0,.74,0,.92-.2.93-.95,0-.25,0-.5,0-.75,0-.56-.23-.79-.79-.82-.28,0-.57,0-.84,0a2,2,0,0,0-2.13.9,1.52,1.52,0,0,1-1.15.8c-.17,0-.23.14-.23.3A7.88,7.88,0,0,0,1659.7,34.71Z"/><path class="a" d="M1662.24,47.21A13.18,13.18,0,1,1,1675.42,34,13.2,13.2,0,0,1,1662.24,47.21Zm0-22.48a9.3,9.3,0,1,0,9.3,9.3A9.31,9.31,0,0,0,1662.24,24.73Z"/><path class="a" d="M998.16,207.91c1.12,13.37,1.54,26.54-3.32,39-11.86,25.28-24.48,33.81-47.71,34.22l-200.86.1c-7.22-.1-7.22-.1-7.85-9.61l0-26.06c.07-9.49.91-10.31,10.94-10.34q80.91-.06,161.81,0c3.32,0,6.64.14,10-.13,9.79-.72,14.69-5.86,14.9-15.41.21-9.35-4.65-15.25-13.95-16.5a70.44,70.44,0,0,0-9.09-.23c-38.17,0-76.38.07-114.55,0-37.27-.13-60.34-22.07-60.44-57.24,0-13.31-.67-26.51,6.74-38.8,11-18.24,29.77-27.66,51.41-28.09H992.26c12,0,12,0,2.69,12.58l-17.76,25.79c-5.71,7.87-5.71,7.87-15.56,7.67l-142.76-.06c-12.62,0-19.75,6.95-18.7,17.81.73,7.25,4.33,12.42,12.44,13.51a106.23,106.23,0,0,0,14.06.79c37.89.06,75.78-.07,113.68.09C972.61,157.06,995.58,177.57,998.16,207.91Z"/><path class="a" d="M151,193.35c0,32.83.09,65.67,0,98.51-.13,36.7-25.92,62.6-62.37,62.71-27.1.08-54.21,0-81.31,0-2.3,0-5.28.84-6.67-1.15-1.8-2.59.82-4.89,2.14-7,7-11,14.22-21.81,21.19-32.81,2.59-4.09,6.23-5,10.67-5q17.6.14,35.18,0c16.45-.12,22.66-6.22,22.68-22.84q.12-96.55,0-193.11c0-12.66,0-12.58,12.3-12.58h36.76c9.53,0,9.52,0,9.53,12.58C151.11,127.35,151,158.69,151,193.35Z"/><path class="a" d="M650.12,92.25C650,79.58,650,79.58,660.34,79.58h39.91c9.45,0,9.44,0,9.43,12.67V273.78c0,9.57,0,9.63-8.9,9.57H658.72c-8.68,0-8.68,0-8.68-9.57C650,273.78,650.11,91.47,650.12,92.25Z"/><path class="a" d="M1502.11,46a6.07,6.07,0,0,0,4.55-2.08L1534.1,2.43A1.55,1.55,0,0,0,1532.86,0L1377.68,0h-.88c-30.74,0-55.67,25.61-55.67,57.24v44a6.37,6.37,0,0,1-6.28,6.46h-28.53a6.34,6.34,0,0,0-6.25,6.43v30.53a6.62,6.62,0,0,0,6.52,6.72h28a6.61,6.61,0,0,1,6.52,6.71V276.56a6.45,6.45,0,0,0,6.36,6.55h47.31a7.07,7.07,0,0,0,7-7.17V129.39a6.94,6.94,0,0,1,6.83-7h131.81a6.52,6.52,0,0,1,6.43,6.61V230.59h0c0,29,22.85,52.52,51,52.52h99.8a6,6,0,0,0,5.87-6V236.83a6.15,6.15,0,0,0-6.06-6.24h-81.71a8.42,8.42,0,0,1-8.3-8.54v-93a6.65,6.65,0,0,1,6.55-6.74h45.8a6.8,6.8,0,0,0,5.89-3.45l29.21-34.8a3.59,3.59,0,0,0-3-5.43h-77.78a6.77,6.77,0,0,1-6.67-6.86V47a6.33,6.33,0,0,0-6.24-6.42l-48.09.07a6.43,6.43,0,0,0-6.32,6.51V72.35a6.25,6.25,0,0,1-6.16,6.33H1406.1a9.58,9.58,0,0,0-5.35,1.64L1392,86.21a6.13,6.13,0,0,1-9.49-5.28V71.5c0-14.08,11.1-25.5,24.79-25.49Z"/><path class="a" d="M1262.61,181.11c-1.38-66.79-54.16-121-120.94-121a121,121,0,0,0-120.93,117.62,90.54,90.54,0,0,0,.56,16.18c2.41,19.49,13.33,43.55,13.5,43.82l65.44-23.11c15.06-5.7,24.85,8.45,20.8,19.45l-21.3,60.47a135.57,135.57,0,0,0,41.93,7.49c65.07,0,119.36-48.68,120.91-115.46C1262.58,186.52,1262.64,182.85,1262.61,181.11Zm-54.83,5.2H1075.52c-.1-1.51-.24-3-.24-4.56a66.37,66.37,0,0,1,132.74,0C1208,183.29,1207.88,184.8,1207.78,186.31Z"/><path class="a" d="M1111.58,229.48c1.37-3.82,0-8.25-6.43-5.5l-99.81,35.24c-4.62,1.13-5.61,5.38-1.48,8h0s25.94,12.19,38.33,18a3.53,3.53,0,0,0,2.7-.49L1062.61,267c4.86-3.43,9,1.75,5.82,5.58,0,0-12,12.05-18.09,18.07a1.62,1.62,0,0,0-.41,2.16l17.55,37.59c2.25,5.09,8.1,2.61,8.69-.52Z"/><path class="a" d="M619.58,83.23c2.48-3.91,1.84-3.91-7.73-3.77l-93.69-.12a17.4,17.4,0,0,0-14.39,6.53c-8.49,10-29,33.34-29,33.34v-27c-.2-12.67-.2-12.37-12.71-12.59l-32.84-.14c-12.29-.13-12-.13-12,12v185c0,7.09,0,6.89,9.94,6.86h37c10.57,0,10.57,0,10.59-9.57V159l21.65-25c4.64-5.6,9.87-8.52,17.54-8.38l70.85.22c5.29,0,8.81-1.66,11.66-6.22Z"/></svg>